<svg width="29" height="30" viewBox="0 0 29 30" fill="none" xmlns="http://www.w3.org/2000/svg">
<g clip-path="url(#clip0_28_50)">
<path d="M10.4346 1.99905C10.5367 2.06203 10.6258 2.14511 10.6967 2.24356C10.7677 2.342 10.8191 2.45387 10.848 2.57278C10.877 2.69169 10.8829 2.81531 10.8654 2.93658C10.848 3.05785 10.8075 3.17438 10.7463 3.27954L6.13169 11.1995H22.8683L18.2519 3.27954C18.1283 3.06716 18.0918 2.81294 18.1502 2.5728C18.2087 2.33266 18.3574 2.12628 18.5636 1.99905C18.7698 1.87182 19.0167 1.83417 19.2499 1.89438C19.4831 1.95459 19.6835 2.10772 19.807 2.3201L24.9817 11.1995H27.1875C27.6682 11.1995 28.1292 11.3962 28.4691 11.7463C28.809 12.0963 29 12.5711 29 13.0661V14.9328C29 15.4278 28.809 15.9026 28.4691 16.2526C28.1292 16.6027 27.6682 16.7994 27.1875 16.7994V25.1991C27.1875 26.4367 26.7101 27.6237 25.8603 28.4988C25.0106 29.3739 23.858 29.8656 22.6562 29.8656H6.34375C5.14199 29.8656 3.98945 29.3739 3.13967 28.4988C2.2899 27.6237 1.8125 26.4367 1.8125 25.1991V16.7994C1.3318 16.7994 0.870779 16.6027 0.530869 16.2526C0.190959 15.9026 0 15.4278 0 14.9328V13.0661C0 12.5711 0.190959 12.0963 0.530869 11.7463C0.870779 11.3962 1.3318 11.1995 1.8125 11.1995H4.01831L9.18938 2.3201C9.25053 2.21493 9.33121 2.12319 9.4268 2.05013C9.52239 1.97707 9.63102 1.92412 9.74648 1.89431C9.86194 1.86449 9.98198 1.8584 10.0997 1.87637C10.2175 1.89434 10.3306 1.93603 10.4328 1.99905H10.4346ZM3.625 16.7994V25.1991C3.625 25.9417 3.91144 26.6538 4.4213 27.1789C4.93117 27.704 5.62269 27.999 6.34375 27.999H22.6562C23.3773 27.999 24.0688 27.704 24.5787 27.1789C25.0886 26.6538 25.375 25.9417 25.375 25.1991V16.7994H3.625ZM1.8125 13.0661V14.9328H27.1875V13.0661H1.8125ZM7.25 18.666C7.49035 18.666 7.72086 18.7643 7.89082 18.9393C8.06077 19.1143 8.15625 19.3517 8.15625 19.5993V25.1991C8.15625 25.4466 8.06077 25.684 7.89082 25.859C7.72086 26.034 7.49035 26.1324 7.25 26.1324C7.00965 26.1324 6.77914 26.034 6.60918 25.859C6.43923 25.684 6.34375 25.4466 6.34375 25.1991V19.5993C6.34375 19.3517 6.43923 19.1143 6.60918 18.9393C6.77914 18.7643 7.00965 18.666 7.25 18.666ZM10.875 18.666C11.1154 18.666 11.3459 18.7643 11.5158 18.9393C11.6858 19.1143 11.7812 19.3517 11.7812 19.5993V25.1991C11.7812 25.4466 11.6858 25.684 11.5158 25.859C11.3459 26.034 11.1154 26.1324 10.875 26.1324C10.6346 26.1324 10.4041 26.034 10.2342 25.859C10.0642 25.684 9.96875 25.4466 9.96875 25.1991V19.5993C9.96875 19.3517 10.0642 19.1143 10.2342 18.9393C10.4041 18.7643 10.6346 18.666 10.875 18.666V18.666ZM14.5 18.666C14.7404 18.666 14.9709 18.7643 15.1408 18.9393C15.3108 19.1143 15.4062 19.3517 15.4062 19.5993V25.1991C15.4062 25.4466 15.3108 25.684 15.1408 25.859C14.9709 26.034 14.7404 26.1324 14.5 26.1324C14.2596 26.1324 14.0291 26.034 13.8592 25.859C13.6892 25.684 13.5938 25.4466 13.5938 25.1991V19.5993C13.5938 19.3517 13.6892 19.1143 13.8592 18.9393C14.0291 18.7643 14.2596 18.666 14.5 18.666V18.666ZM18.125 18.666C18.3654 18.666 18.5959 18.7643 18.7658 18.9393C18.9358 19.1143 19.0312 19.3517 19.0312 19.5993V25.1991C19.0312 25.4466 18.9358 25.684 18.7658 25.859C18.5959 26.034 18.3654 26.1324 18.125 26.1324C17.8846 26.1324 17.6541 26.034 17.4842 25.859C17.3142 25.684 17.2188 25.4466 17.2188 25.1991V19.5993C17.2188 19.3517 17.3142 19.1143 17.4842 18.9393C17.6541 18.7643 17.8846 18.666 18.125 18.666ZM21.75 18.666C21.9904 18.666 22.2209 18.7643 22.3908 18.9393C22.5608 19.1143 22.6562 19.3517 22.6562 19.5993V25.1991C22.6562 25.4466 22.5608 25.684 22.3908 25.859C22.2209 26.034 21.9904 26.1324 21.75 26.1324C21.5096 26.1324 21.2791 26.034 21.1092 25.859C20.9392 25.684 20.8438 25.4466 20.8438 25.1991V19.5993C20.8438 19.3517 20.9392 19.1143 21.1092 18.9393C21.2791 18.7643 21.5096 18.666 21.75 18.666Z" fill="white"/>
</g>
<defs>
<clipPath id="clip0_28_50">
<path d="M0 0H23.9046C26.7187 0 29 2.2813 29 5.09542V29.8657H0V0Z" fill="white"/>
</clipPath>
</defs>
</svg>
