<svg width="29" height="30" viewBox="0 0 29 30" fill="none" xmlns="http://www.w3.org/2000/svg">
<g clip-path="url(#clip0_49_10)">
<path d="M10.2392 1.96157C10.3394 2.02337 10.4268 2.1049 10.4964 2.2015C10.566 2.2981 10.6165 2.40788 10.6449 2.52456C10.6733 2.64125 10.6791 2.76255 10.662 2.88155C10.6448 3.00054 10.6051 3.1149 10.5451 3.21808L6.01686 10.9898H22.44L17.9101 3.21808C17.7888 3.00968 17.753 2.76022 17.8103 2.52458C17.8677 2.28894 18.0136 2.08642 18.216 1.96157C18.4183 1.83673 18.6606 1.79978 18.8894 1.85886C19.1182 1.91794 19.3148 2.06821 19.4361 2.27662L24.5138 10.9898H26.6783C27.1501 10.9898 27.6024 11.1827 27.936 11.5262C28.2695 11.8697 28.4569 12.3356 28.4569 12.8214V14.6531C28.4569 15.1388 28.2695 15.6047 27.936 15.9482C27.6024 16.2917 27.1501 16.4847 26.6783 16.4847V24.7271C26.6783 25.9416 26.2099 27.1063 25.376 27.9651C24.5422 28.8238 23.4112 29.3062 22.232 29.3062H6.22495C5.04569 29.3062 3.91473 28.8238 3.08087 27.9651C2.24701 27.1063 1.77856 25.9416 1.77856 24.7271V16.4847C1.30685 16.4847 0.854471 16.2917 0.520927 15.9482C0.187383 15.6047 0 15.1388 0 14.6531V12.8214C0 12.3356 0.187383 11.8697 0.520927 11.5262C0.854471 11.1827 1.30685 10.9898 1.77856 10.9898H3.94306L9.01728 2.27662C9.07729 2.17341 9.15646 2.08339 9.25026 2.0117C9.34406 1.94001 9.45065 1.88805 9.56395 1.8588C9.67726 1.82954 9.79504 1.82356 9.91059 1.84119C10.0261 1.85883 10.1372 1.89973 10.2374 1.96157H10.2392ZM3.55711 16.4847V24.7271C3.55711 25.4558 3.83819 26.1546 4.3385 26.6699C4.83882 27.1851 5.51739 27.4746 6.22495 27.4746H22.232C22.9395 27.4746 23.6181 27.1851 24.1184 26.6699C24.6187 26.1546 24.8998 25.4558 24.8998 24.7271V16.4847H3.55711ZM1.77856 12.8214V14.6531H26.6783V12.8214H1.77856ZM7.11423 18.3164C7.35008 18.3164 7.57627 18.4128 7.74304 18.5846C7.90981 18.7563 8.0035 18.9893 8.0035 19.2322V24.7271C8.0035 24.97 7.90981 25.203 7.74304 25.3747C7.57627 25.5465 7.35008 25.6429 7.11423 25.6429C6.87838 25.6429 6.65218 25.5465 6.48541 25.3747C6.31864 25.203 6.22495 24.97 6.22495 24.7271V19.2322C6.22495 18.9893 6.31864 18.7563 6.48541 18.5846C6.65218 18.4128 6.87838 18.3164 7.11423 18.3164ZM10.6713 18.3164C10.9072 18.3164 11.1334 18.4128 11.3002 18.5846C11.4669 18.7563 11.5606 18.9893 11.5606 19.2322V24.7271C11.5606 24.97 11.4669 25.203 11.3002 25.3747C11.1334 25.5465 10.9072 25.6429 10.6713 25.6429C10.4355 25.6429 10.2093 25.5465 10.0425 25.3747C9.87575 25.203 9.78206 24.97 9.78206 24.7271V19.2322C9.78206 18.9893 9.87575 18.7563 10.0425 18.5846C10.2093 18.4128 10.4355 18.3164 10.6713 18.3164V18.3164ZM14.2285 18.3164C14.4643 18.3164 14.6905 18.4128 14.8573 18.5846C15.024 18.7563 15.1177 18.9893 15.1177 19.2322V24.7271C15.1177 24.97 15.024 25.203 14.8573 25.3747C14.6905 25.5465 14.4643 25.6429 14.2285 25.6429C13.9926 25.6429 13.7664 25.5465 13.5996 25.3747C13.4329 25.203 13.3392 24.97 13.3392 24.7271V19.2322C13.3392 18.9893 13.4329 18.7563 13.5996 18.5846C13.7664 18.4128 13.9926 18.3164 14.2285 18.3164V18.3164ZM17.7856 18.3164C18.0214 18.3164 18.2476 18.4128 18.4144 18.5846C18.5812 18.7563 18.6748 18.9893 18.6748 19.2322V24.7271C18.6748 24.97 18.5812 25.203 18.4144 25.3747C18.2476 25.5465 18.0214 25.6429 17.7856 25.6429C17.5497 25.6429 17.3235 25.5465 17.1568 25.3747C16.99 25.203 16.8963 24.97 16.8963 24.7271V19.2322C16.8963 18.9893 16.99 18.7563 17.1568 18.5846C17.3235 18.4128 17.5497 18.3164 17.7856 18.3164ZM21.3427 18.3164C21.5785 18.3164 21.8047 18.4128 21.9715 18.5846C22.1383 18.7563 22.232 18.9893 22.232 19.2322V24.7271C22.232 24.97 22.1383 25.203 21.9715 25.3747C21.8047 25.5465 21.5785 25.6429 21.3427 25.6429C21.1068 25.6429 20.8806 25.5465 20.7139 25.3747C20.5471 25.203 20.4534 24.97 20.4534 24.7271V19.2322C20.4534 18.9893 20.5471 18.7563 20.7139 18.5846C20.8806 18.4128 21.1068 18.3164 21.3427 18.3164Z" fill="#538504"/>
</g>
<defs>
<clipPath id="clip0_49_10">
<path d="M0 0H23.4569C26.2183 0 28.4569 2.23858 28.4569 5V29.3064H0V0Z" fill="white"/>
</clipPath>
</defs>
</svg>
