<svg width="48" height="48" viewBox="0 0 48 48" fill="none" xmlns="http://www.w3.org/2000/svg">
<path d="M24 23.7076C26.3869 23.7076 28.6761 22.7825 30.364 21.1357C32.0518 19.4889 33 17.2554 33 14.9265C33 12.5976 32.0518 10.3641 30.364 8.71731C28.6761 7.07054 26.3869 6.14539 24 6.14539C21.6131 6.14539 19.3239 7.07054 17.636 8.71731C15.9482 10.3641 15 12.5976 15 14.9265C15 17.2554 15.9482 19.4889 17.636 21.1357C19.3239 22.7825 21.6131 23.7076 24 23.7076ZM30 14.9265C30 16.4791 29.3679 17.9681 28.2426 19.0659C27.1174 20.1638 25.5913 20.7806 24 20.7806C22.4087 20.7806 20.8826 20.1638 19.7574 19.0659C18.6321 17.9681 18 16.4791 18 14.9265C18 13.3739 18.6321 11.8849 19.7574 10.787C20.8826 9.68919 22.4087 9.07242 24 9.07242C25.5913 9.07242 27.1174 9.68919 28.2426 10.787C29.3679 11.8849 30 13.3739 30 14.9265ZM42 38.3428C42 41.2698 39 41.2698 39 41.2698H9C9 41.2698 6 41.2698 6 38.3428C6 35.4157 9 26.6346 24 26.6346C39 26.6346 42 35.4157 42 38.3428ZM39 38.3311C38.997 37.611 38.538 35.445 36.504 33.4605C34.548 31.5521 30.867 29.5617 24 29.5617C17.13 29.5617 13.452 31.5521 11.496 33.4605C9.462 35.445 9.006 37.611 9 38.3311H39Z" fill="#538504"/>
</svg>
